<mxfile host="app.diagrams.net" modified="2023-10-05T06:25:06.204Z" agent="Mozilla/5.0 (Windows NT 10.0; Win64; x64) AppleWebKit/537.36 (KHTML, like Gecko) Chrome/117.0.0.0 Safari/537.36" version="22.0.0" etag="WaHf2wq5xI3PRH8yqvkR" type="github">
  <diagram name="Page-1" id="fz1un74zTREbCJOJbqzG">
    <mxGraphModel>
      <root>
        <mxCell id="0" />
        <mxCell id="1" parent="0" />
      </root>
    </mxGraphModel>
  </diagram>
</mxfile>
